<?xml version="1.0" encoding="UTF-8"?>
<!DOCTYPE svg PUBLIC "-//W3C//DTD SVG 1.1//EN" "http://www.w3.org/Graphics/SVG/1.1/DTD/svg11.dtd">
<svg version="1.2" width="127mm" height="127mm" viewBox="0 0 12700 12700" preserveAspectRatio="xMidYMid" fill-rule="evenodd" stroke-width="28.222" stroke-linejoin="round" xmlns="http://www.w3.org/2000/svg" xmlns:ooo="http://xml.openoffice.org/svg/export" xmlns:xlink="http://www.w3.org/1999/xlink" xmlns:presentation="http://sun.com/xmlns/staroffice/presentation" xmlns:smil="http://www.w3.org/2001/SMIL20/" xmlns:anim="urn:oasis:names:tc:opendocument:xmlns:animation:1.0" xml:space="preserve">
 <defs class="ClipPathGroup">
  <clipPath id="presentation_clip_path" clipPathUnits="userSpaceOnUse">
   <rect x="0" y="0" width="12700" height="12700"/>
  </clipPath>
  <clipPath id="presentation_clip_path_shrink" clipPathUnits="userSpaceOnUse">
   <rect x="12" y="12" width="12675" height="12675"/>
  </clipPath>
 </defs>
 <defs class="TextShapeIndex">
  <g ooo:slide="id1" ooo:id-list="id3 id4 id5 id6 id7 id8 id9 id10"/>
 </defs>
 <defs class="EmbeddedBulletChars">
  <g id="bullet-char-template-57356" transform="scale(0.00048828125,-0.00048828125)">
   <path d="M 580,1141 L 1163,571 580,0 -4,571 580,1141 Z"/>
  </g>
  <g id="bullet-char-template-57354" transform="scale(0.00048828125,-0.00048828125)">
   <path d="M 8,1128 L 1137,1128 1137,0 8,0 8,1128 Z"/>
  </g>
  <g id="bullet-char-template-10146" transform="scale(0.00048828125,-0.00048828125)">
   <path d="M 174,0 L 602,739 174,1481 1456,739 174,0 Z M 1358,739 L 309,1346 659,739 1358,739 Z"/>
  </g>
  <g id="bullet-char-template-10132" transform="scale(0.00048828125,-0.00048828125)">
   <path d="M 2015,739 L 1276,0 717,0 1260,543 174,543 174,936 1260,936 717,1481 1274,1481 2015,739 Z"/>
  </g>
  <g id="bullet-char-template-10007" transform="scale(0.00048828125,-0.00048828125)">
   <path d="M 0,-2 C -7,14 -16,27 -25,37 L 356,567 C 262,823 215,952 215,954 215,979 228,992 255,992 264,992 276,990 289,987 310,991 331,999 354,1012 L 381,999 492,748 772,1049 836,1024 860,1049 C 881,1039 901,1025 922,1006 886,937 835,863 770,784 769,783 710,716 594,584 L 774,223 C 774,196 753,168 711,139 L 727,119 C 717,90 699,76 672,76 641,76 570,178 457,381 L 164,-76 C 142,-110 111,-127 72,-127 30,-127 9,-110 8,-76 1,-67 -2,-52 -2,-32 -2,-23 -1,-13 0,-2 Z"/>
  </g>
  <g id="bullet-char-template-10004" transform="scale(0.00048828125,-0.00048828125)">
   <path d="M 285,-33 C 182,-33 111,30 74,156 52,228 41,333 41,471 41,549 55,616 82,672 116,743 169,778 240,778 293,778 328,747 346,684 L 369,508 C 377,444 397,411 428,410 L 1163,1116 C 1174,1127 1196,1133 1229,1133 1271,1133 1292,1118 1292,1087 L 1292,965 C 1292,929 1282,901 1262,881 L 442,47 C 390,-6 338,-33 285,-33 Z"/>
  </g>
  <g id="bullet-char-template-9679" transform="scale(0.00048828125,-0.00048828125)">
   <path d="M 813,0 C 632,0 489,54 383,161 276,268 223,411 223,592 223,773 276,916 383,1023 489,1130 632,1184 813,1184 992,1184 1136,1130 1245,1023 1353,916 1407,772 1407,592 1407,412 1353,268 1245,161 1136,54 992,0 813,0 Z"/>
  </g>
  <g id="bullet-char-template-8226" transform="scale(0.00048828125,-0.00048828125)">
   <path d="M 346,457 C 273,457 209,483 155,535 101,586 74,649 74,723 74,796 101,859 155,911 209,963 273,989 346,989 419,989 480,963 531,910 582,859 608,796 608,723 608,648 583,586 532,535 482,483 420,457 346,457 Z"/>
  </g>
  <g id="bullet-char-template-8211" transform="scale(0.00048828125,-0.00048828125)">
   <path d="M -4,459 L 1135,459 1135,606 -4,606 -4,459 Z"/>
  </g>
  <g id="bullet-char-template-61548" transform="scale(0.00048828125,-0.00048828125)">
   <path d="M 173,740 C 173,903 231,1043 346,1159 462,1274 601,1332 765,1332 928,1332 1067,1274 1183,1159 1299,1043 1357,903 1357,740 1357,577 1299,437 1183,322 1067,206 928,148 765,148 601,148 462,206 346,322 231,437 173,577 173,740 Z"/>
  </g>
 </defs>
 <g>
  <g id="id2" class="Master_Slide">
   <g id="bg-id2" class="Background"/>
   <g id="bo-id2" class="BackgroundObjects"/>
  </g>
 </g>
 <g class="SlideGroup">
  <g>
   <g id="container-id1">
    <g id="id1" class="Slide" clip-path="url(#presentation_clip_path)">
     <g class="Page">
      <g class="com.sun.star.drawing.OpenFreeHandShape">
       <g id="id3">
        <rect class="BoundingBox" stroke="none" fill="none" x="1073" y="3695" width="10556" height="399"/>
        <path fill="none" stroke="rgb(255,255,255)" stroke-width="212" stroke-linejoin="round" d="M 1179,3825 C 1996,3973 2828,3974 3656,3969 4553,3963 5453,4011 6350,3969 6905,3943 7451,3943 8010,3873 8558,3805 9116,3858 9669,3873 10047,3884 10421,3807 10800,3849 L 11112,3825 11449,3825 11521,3801"/>
       </g>
      </g>
      <g class="com.sun.star.drawing.OpenFreeHandShape">
       <g id="id4">
        <rect class="BoundingBox" stroke="none" fill="none" x="1024" y="8166" width="10773" height="456"/>
        <path fill="none" stroke="rgb(255,255,255)" stroke-width="212" stroke-linejoin="round" d="M 1130,8515 C 1820,8444 2502,8280 3199,8275 4120,8269 5042,8275 5965,8275 6718,8275 7473,8297 8226,8275 8726,8261 9220,8319 9717,8347 10151,8372 10585,8425 11016,8491 L 11401,8515 11690,8515 11690,8515"/>
       </g>
      </g>
      <g class="com.sun.star.drawing.OpenFreeHandShape">
       <g id="id5">
        <rect class="BoundingBox" stroke="none" fill="none" x="3814" y="904" width="660" height="10965"/>
        <path fill="none" stroke="rgb(255,255,255)" stroke-width="212" stroke-linejoin="round" d="M 3921,1011 C 4119,1377 4042,1795 4017,2189 3991,2588 3964,2990 3969,3392 3974,3826 3971,4265 4065,4691 4141,5038 4160,5395 4185,5749 4208,6081 4325,6401 4330,6735 4335,7128 4392,7517 4354,7914 4317,8303 4356,8703 4281,9092 4217,9423 4259,9765 4257,10103 4255,10502 4256,10904 4257,11305 L 4281,11546 4161,11762"/>
       </g>
      </g>
      <g class="com.sun.star.drawing.OpenFreeHandShape">
       <g id="id6">
        <rect class="BoundingBox" stroke="none" fill="none" x="8072" y="905" width="480" height="10724"/>
        <path fill="none" stroke="rgb(255,255,255)" stroke-width="212" stroke-linejoin="round" d="M 8178,1011 C 8353,1438 8295,1890 8298,2334 8301,2702 8323,3074 8274,3440 8232,3759 8317,4059 8322,4378 8326,4653 8365,4920 8370,5196 8377,5586 8457,5960 8443,6350 8424,6869 8397,7390 8370,7914 8351,8289 8312,8648 8298,9020 8283,9405 8256,9790 8274,10175 8287,10471 8312,10770 8274,11065 L 8274,11353 8274,11522"/>
       </g>
      </g>
      <g class="com.sun.star.drawing.OpenFreeHandShape">
       <g id="id7">
        <rect class="BoundingBox" stroke="none" fill="none" x="1609" y="1858" width="1742" height="1859"/>
        <path fill="none" stroke="rgb(255,255,255)" stroke-width="81" stroke-linejoin="round" d="M 2179,1992 C 1742,2237 1376,3030 1930,3424 2288,3678 2881,3817 3144,3455 3469,3007 3315,2107 2677,1930 L 2366,1899 2055,1961 1961,2086"/>
       </g>
      </g>
      <g class="com.sun.star.drawing.OpenFreeHandShape">
       <g id="id8">
        <rect class="BoundingBox" stroke="none" fill="none" x="8860" y="8770" width="2259" height="2607"/>
        <path fill="none" stroke="rgb(255,255,255)" stroke-width="81" stroke-linejoin="round" d="M 9619,8903 C 9160,9018 8932,9505 8903,9930 8862,10514 9399,10848 9806,11144 10133,11381 10729,11466 10926,10988 11127,10499 11148,9927 10864,9463 10674,9152 10365,8691 9930,8840 L 9619,8934 9494,9027"/>
       </g>
      </g>
      <g class="com.sun.star.drawing.OpenFreeHandShape">
       <g id="id9">
        <rect class="BoundingBox" stroke="none" fill="none" x="4752" y="5150" width="2886" height="2753"/>
        <path fill="none" stroke="rgb(255,255,255)" stroke-width="106" stroke-linejoin="round" d="M 4806,5204 C 5411,5866 6123,6415 6791,7012 L 7276,7453 7584,7849"/>
       </g>
      </g>
      <g class="com.sun.star.drawing.OpenFreeHandShape">
       <g id="id10">
        <rect class="BoundingBox" stroke="none" fill="none" x="5018" y="5503" width="2135" height="2534"/>
        <path fill="none" stroke="rgb(255,255,255)" stroke-width="106" stroke-linejoin="round" d="M 7099,5556 C 6727,6231 5949,6482 5512,7100 L 5203,7629 5071,7982"/>
       </g>
      </g>
     </g>
    </g>
   </g>
  </g>
 </g>
</svg>
